PathFileType	4	(X/Y/Z)	OpenSim_Sub03_EMGBaseline_Accel.trc
DataRate	CameraRate	NumFrames	NumMarkers	Units	OrigDataRate	OrigDataStartFrame	OrigNumFrames
100	100	27	8	m	100	1844	7372
Frame#	Time	torso_imu_offset_imu	pelvis_imu_offset_imu	tibia_r_imu_offset_imu	femur_r_imu_offset_imu	tibia_l_imu_offset_imu	femur_l_imu_offset_imu	toes_r_imu_offset_imu	toes_l_imu_offset_imu
				X1	Y1	Z1	X2	Y2	Z2	X3	Y3	Z3	X4	Y4	Z4	X5	Y5	Z5	X6	Y6	Z6	X7	Y7	Z7	X8		Y8	Z8	

1844	18.43000000	8.87827509	2.19733983	4.36462653	9.52164994	-1.01155206	3.49830773	8.96608918	7.09391548	-2.05839371	12.43224275	0.61630035	1.99213966	9.65003668	-0.74135893	-1.64400390	8.59085969	0.59666259	-3.25119605	10.52859402	-4.04017672	6.36946132	5.48694375	1.49565020	10.84428154
1845	18.44000000	9.02655943	2.27526080	4.42806974	9.78587116	-1.31002540	3.27813523	7.94989503	6.58803650	-3.18947088	12.43937714	0.46077657	2.11964394	9.82651377	-1.96161472	-2.94446995	8.97786965	0.26264021	-3.37932282	9.55058003	-3.74879406	5.42584809	5.68030612	1.39137575	10.89352234
1846	18.45000000	9.27297937	2.31799171	4.51545087	10.03646079	-1.43253395	3.19022769	7.42674401	6.26509987	-2.62923700	12.28430961	0.02893344	2.04673689	9.88835347	-2.62152482	-3.50876772	9.34535999	-0.62065822	-2.95584976	11.81225721	-2.99247795	4.21307552	5.69466563	1.53105625	10.96045483
1847	18.46000000	9.58281242	2.28409943	4.55733560	10.23610018	-1.56902712	3.00952498	7.19475325	8.37698764	-1.29283026	11.86864350	-0.50640158	2.06938007	10.16110418	-2.30931941	-2.94250668	9.51467674	-1.29768829	-2.26157970	20.92256948	-3.11202252	11.65163020	5.53761096	1.70645028	10.94061585
1848	18.47000000	9.79768292	2.17289125	4.66780265	10.18819187	-1.82157923	2.85141008	6.56418145	12.54205804	-1.85380422	11.17510320	-0.89662564	2.22949489	10.07553700	-0.81942868	-1.52354023	9.41953881	-1.31548120	-1.82016770	24.81142098	-8.54578047	17.28602078	5.65305765	1.75093261	10.75623159
1849	18.48000000	9.81082523	1.99868327	4.78682772	9.99887504	-2.00068368	2.77430245	5.55928261	15.16913437	-2.50352906	11.06070240	-1.74234632	2.43085021	9.78177928	0.69843086	-0.46603279	9.07986649	-1.02996141	-1.90972342	17.72531833	-14.54804657	11.52858998	5.53037817	1.36006147	10.68622770
1850	18.49000000	9.90745344	1.82805463	4.90148165	9.85315928	-1.87477328	2.64338541	4.66937056	11.65666729	-2.80097183	11.38834168	-2.51968467	2.37216271	10.25271892	1.72235737	-0.05849810	9.22686166	-0.76091582	-2.20850570	6.25603063	-11.97036713	6.38715067	5.29413365	0.93130256	10.85084280
1851	18.50000000	10.16922219	1.61778922	5.06978509	9.94036496	-1.47676358	2.62246600	4.70236002	5.18452160	-1.51035741	11.05925773	-2.80563535	2.17516684	10.48560400	2.08545038	-0.12668245	9.67436870	-0.53851760	-2.14486499	2.46229916	-9.13283053	4.28943817	5.07729394	1.06695938	11.26013844
1852	18.51000000	10.30879783	1.40623513	5.28369740	9.95990242	-1.35653320	2.61384096	4.99486703	2.15183463	0.19171781	10.45301828	-3.08953543	2.00456292	10.28356483	1.43251728	-0.80587115	9.87368537	-0.50304774	-1.64670497	-0.68918396	-5.48277379	3.50457306	5.49500896	1.09145485	10.94639715
1853	18.52000000	10.12978169	1.22541362	5.47178588	9.98019572	-1.19272740	2.57427235	4.59165786	1.00211720	1.32085413	9.86747741	-2.87173380	1.80685998	9.95325824	0.51716882	-1.25934478	9.84639224	-0.57784589	-1.23763587	-0.55027858	-3.16004908	3.97043842	5.65305558	1.03195752	10.77788683
1854	18.53000000	9.70213813	1.10351967	5.59519996	9.79808200	-1.15387270	2.59176798	4.02440210	1.26127096	1.29529640	9.29424539	-2.47942371	1.66557145	9.64863478	0.10348962	-1.18650349	9.69691275	-0.49957731	-1.23935559	2.20100873	-2.30344287	5.51832758	5.56529818	1.33153643	10.90432096
1855	18.54000000	9.10850303	1.02639956	5.62931413	9.64360024	-1.09560109	2.54862553	3.94733121	3.86842926	0.20263412	8.96580453	-2.12888472	1.60824234	9.76764063	0.31541616	-0.76415504	9.60028759	-0.15500592	-1.43903377	5.10983450	-2.73763659	7.05719753	5.27107023	1.30080011	11.09331135
1856	18.55000000	8.60405464	0.97983705	5.59750416	9.40732085	-1.06750055	2.49596484	4.12309939	6.71047094	-0.75947083	8.88575831	-1.79725116	1.65248407	9.72372757	0.46333819	-0.46840601	9.37917558	0.19788102	-1.65705567	7.64291821	-3.42780880	7.79771903	5.28077707	1.02412690	10.96311423
1857	18.56000000	8.39046596	1.00352462	5.55466939	9.01990163	-1.19432616	2.50217426	4.36192784	7.83808832	-0.72327519	8.91002127	-1.78699941	1.86852457	9.45183576	0.44318363	-0.11885785	9.30220053	0.60120927	-1.82996409	7.55339621	-3.63973935	7.73871246	5.57879382	0.94373526	10.77111560
1858	18.57000000	8.32233150	1.03678845	5.48959604	8.81669173	-1.02052752	2.51012980	4.53016446	7.17726169	-0.11654088	9.08904717	-1.55315246	2.17901605	9.60039649	0.57314129	-0.07094606	9.35606539	0.89198527	-1.90676022	5.54193311	-1.99225667	7.32681003	5.74769647	0.78553656	10.62983168
1859	18.58000000	8.29880291	1.08089670	5.44139336	8.67676187	-0.85942654	2.52041973	4.54747641	6.13546346	0.12172928	9.16001071	-1.11465305	2.32455780	9.65503458	0.47746027	-0.18389332	9.21689687	0.94595550	-1.86399988	4.45408569	0.59737765	6.70848653	5.43619288	0.81660917	10.83735213
1860	18.59000000	8.29931614	1.10937912	5.45250628	8.62840826	-0.69533659	2.45970561	4.67503357	6.02507258	0.24735134	8.95550970	-1.44609130	2.33759470	9.56226519	-0.13963246	-0.41295636	9.32089761	0.77348656	-1.78996147	4.30138878	2.40928265	6.64074126	5.51253957	1.00335952	10.81610169
1861	18.60000000	8.17932984	1.16887173	5.52116963	8.83198294	-0.38699258	2.40201602	4.99337056	6.22275309	0.60816072	8.71985393	-1.52730668	2.26180895	9.44257423	-0.66979417	-0.77066643	9.42779474	0.41926799	-1.77215110	4.44401595	2.56788028	6.32381859	5.87367443	1.03497500	10.61253414
1862	18.61000000	8.07987458	1.21176428	5.59112394	8.85569090	-0.51343236	2.39082149	5.00601440	6.76482539	0.90884970	8.64771404	-1.09507416	2.10743056	9.42526404	-1.19379128	-0.97000350	9.36140017	0.11706933	-1.78371512	4.86690451	1.51636470	6.30650567	5.89259182	1.02930869	10.63031799
1863	18.62000000	8.06257641	1.27657638	5.65974538	9.07912444	-0.47294801	2.33762999	4.78617883	7.91433341	0.55788925	8.78201258	-0.68657361	2.04810581	9.40586937	-1.69399335	-0.86363370	9.27648255	-0.02359606	-1.79913517	5.84028057	0.60436766	6.72862158	5.86091648	1.00315573	10.71145768
1864	18.63000000	8.14026531	1.27756608	5.72479883	9.20779381	-0.44078779	2.33613054	4.77367416	8.77869200	0.11200931	8.76460950	-0.31008477	2.19284512	9.39009795	-1.96532929	-0.98439620	9.25408961	-0.15294218	-1.79809100	6.99512793	0.74480399	7.39861366	5.71354825	1.00442943	10.63228622
1865	18.64000000	8.22024183	1.26071326	5.75661164	9.09949860	-0.64091697	2.30208816	4.71697899	8.33155290	0.40895206	8.48229731	-0.20662182	2.37565134	9.46504855	-1.72227759	-0.85213159	9.37852461	-0.28240466	-1.89707420	8.04722482	1.17546351	7.69077004	5.81958283	1.01700658	10.54410356
1866	18.65000000	8.35052760	1.26419702	5.76104054	9.06661122	-0.76879422	2.24373907	4.80426901	6.92395586	0.84834825	8.25577430	0.23913104	2.35260026	9.55424965	-1.64171103	-0.88599847	9.41304703	-0.40294772	-1.93001094	8.83765338	0.73090630	7.34906163	5.91678891	0.99012729	10.55515598
1867	18.66000000	8.55300819	1.32819916	5.80970203	9.13582996	-0.78994258	2.14012828	5.01362102	5.25555865	1.00329181	8.10467142	0.74142975	2.31424066	9.69495745	-1.85637102	-0.80980691	9.43529347	-0.52924014	-1.91033841	9.47986477	-0.72067198	6.74295012	6.00834449	0.90227574	10.54962503
1868	18.67000000	8.70744378	1.38472058	5.87821166	9.31684367	-0.76252511	2.10882584	5.28928777	4.01865983	1.04193510	7.95467914	0.90432872	2.23957505	9.78529359	-1.89543704	-0.71038021	9.52475692	-0.61658972	-1.84655752	10.40818904	-2.42166355	6.28066291	5.66992656	0.75194806	10.69676869
1869	18.68000000	8.86875080	1.35372623	5.87737500	9.43185713	-0.85962768	2.09838291	6.03548804	3.67381412	1.07270238	7.94166968	0.95757068	2.06184450	9.80324901	-1.59915486	-0.59571460	9.59331014	-0.61848460	-1.87592463	11.58822710	-3.59850137	6.22093638	5.77033329	0.81154674	10.66413381
1870	18.69000000	9.00669289	1.34391437	5.92931871	9.56896269	-0.84235744	2.06953503	7.04496603	4.09749858	1.01067798	8.03897645	0.41510517	2.03054966	9.89560537	-1.56081590	-0.73156294	9.65906779	-0.61638875	-1.93040641	12.54389072	-4.40117439	6.34212387	5.94825893	0.66436972	10.59754083
